<svg xmlns="http://www.w3.org/2000/svg" width="1280" height="760" viewBox="0 0 1280 760">
  <defs>
    <linearGradient id="top" x1="0" y1="0" x2="1" y2="1"><stop stop-color="#0b3d91"/><stop offset="1" stop-color="#14b8a6"/></linearGradient>
    <filter id="shadow" x="-20%" y="-20%" width="140%" height="140%"><feDropShadow dx="0" dy="16" stdDeviation="18" flood-color="#0f172a" flood-opacity=".14"/></filter>
  </defs>
  <rect width="1280" height="760" fill="#f8fafc"/>
  <rect x="36" y="32" width="1208" height="696" rx="28" fill="#fff" filter="url(#shadow)"/>
  <rect x="36" y="32" width="1208" height="70" rx="28" fill="url(#top)"/>
  <circle cx="78" cy="67" r="9" fill="#fff" opacity=".85"/><circle cx="108" cy="67" r="9" fill="#fff" opacity=".55"/><circle cx="138" cy="67" r="9" fill="#fff" opacity=".32"/>
  <text x="178" y="77" font-family="Segoe UI, Arial, sans-serif" font-size="28" font-weight="800" fill="#fff">Admin Console</text>
  <rect x="54" y="126" width="250" height="560" rx="22" fill="#042f2e"/><text x="82" y="177" font-family="Segoe UI, Arial" font-size="19" font-weight="800" fill="#fff">AXIOMBYTE SMS</text><rect x="72" y="150" width="210" height="36" rx="11" fill="#14b8a6" opacity="1"/><rect x="72" y="205" width="210" height="36" rx="11" fill="#ffffff" opacity=".10"/><rect x="72" y="260" width="210" height="36" rx="11" fill="#ffffff" opacity=".10"/><rect x="72" y="315" width="210" height="36" rx="11" fill="#ffffff" opacity=".10"/><rect x="72" y="370" width="210" height="36" rx="11" fill="#ffffff" opacity=".10"/><rect x="72" y="425" width="210" height="36" rx="11" fill="#ffffff" opacity=".10"/><rect x="340" y="145" width="185" height="118" rx="20" fill="#fff" stroke="#e2e8f0"/><circle cx="378" cy="183" r="20" fill="#ecfdf5"/><rect x="410" y="173" width="85" height="13" rx="7" fill="#0f766e" opacity=".85"/><rect x="368" y="223" width="130" height="11" rx="6" fill="#cbd5e1"/><rect x="555" y="145" width="185" height="118" rx="20" fill="#fff" stroke="#e2e8f0"/><circle cx="593" cy="183" r="20" fill="#ecfdf5"/><rect x="625" y="173" width="85" height="13" rx="7" fill="#0f766e" opacity=".85"/><rect x="583" y="223" width="130" height="11" rx="6" fill="#cbd5e1"/><rect x="770" y="145" width="185" height="118" rx="20" fill="#fff" stroke="#e2e8f0"/><circle cx="808" cy="183" r="20" fill="#ecfdf5"/><rect x="840" y="173" width="85" height="13" rx="7" fill="#0f766e" opacity=".85"/><rect x="798" y="223" width="130" height="11" rx="6" fill="#cbd5e1"/><rect x="985" y="145" width="185" height="118" rx="20" fill="#fff" stroke="#e2e8f0"/><circle cx="1023" cy="183" r="20" fill="#ecfdf5"/><rect x="1055" y="173" width="85" height="13" rx="7" fill="#0f766e" opacity=".85"/><rect x="1013" y="223" width="130" height="11" rx="6" fill="#cbd5e1"/><rect x="340" y="295" width="185" height="118" rx="20" fill="#fff" stroke="#e2e8f0"/><circle cx="378" cy="333" r="20" fill="#ecfdf5"/><rect x="410" y="323" width="85" height="13" rx="7" fill="#0f766e" opacity=".85"/><rect x="368" y="373" width="130" height="11" rx="6" fill="#cbd5e1"/><rect x="555" y="295" width="185" height="118" rx="20" fill="#fff" stroke="#e2e8f0"/><circle cx="593" cy="333" r="20" fill="#ecfdf5"/><rect x="625" y="323" width="85" height="13" rx="7" fill="#0f766e" opacity=".85"/><rect x="583" y="373" width="130" height="11" rx="6" fill="#cbd5e1"/><rect x="770" y="295" width="185" height="118" rx="20" fill="#fff" stroke="#e2e8f0"/><circle cx="808" cy="333" r="20" fill="#ecfdf5"/><rect x="840" y="323" width="85" height="13" rx="7" fill="#0f766e" opacity=".85"/><rect x="798" y="373" width="130" height="11" rx="6" fill="#cbd5e1"/><rect x="985" y="295" width="185" height="118" rx="20" fill="#fff" stroke="#e2e8f0"/><circle cx="1023" cy="333" r="20" fill="#ecfdf5"/><rect x="1055" y="323" width="85" height="13" rx="7" fill="#0f766e" opacity=".85"/><rect x="1013" y="373" width="130" height="11" rx="6" fill="#cbd5e1"/><rect x="340" y="445" width="185" height="118" rx="20" fill="#fff" stroke="#e2e8f0"/><circle cx="378" cy="483" r="20" fill="#ecfdf5"/><rect x="410" y="473" width="85" height="13" rx="7" fill="#0f766e" opacity=".85"/><rect x="368" y="523" width="130" height="11" rx="6" fill="#cbd5e1"/><rect x="555" y="445" width="185" height="118" rx="20" fill="#fff" stroke="#e2e8f0"/><circle cx="593" cy="483" r="20" fill="#ecfdf5"/><rect x="625" y="473" width="85" height="13" rx="7" fill="#0f766e" opacity=".85"/><rect x="583" y="523" width="130" height="11" rx="6" fill="#cbd5e1"/><rect x="770" y="445" width="185" height="118" rx="20" fill="#fff" stroke="#e2e8f0"/><circle cx="808" cy="483" r="20" fill="#ecfdf5"/><rect x="840" y="473" width="85" height="13" rx="7" fill="#0f766e" opacity=".85"/><rect x="798" y="523" width="130" height="11" rx="6" fill="#cbd5e1"/><rect x="985" y="445" width="185" height="118" rx="20" fill="#fff" stroke="#e2e8f0"/><circle cx="1023" cy="483" r="20" fill="#ecfdf5"/><rect x="1055" y="473" width="85" height="13" rx="7" fill="#0f766e" opacity=".85"/><rect x="1013" y="523" width="130" height="11" rx="6" fill="#cbd5e1"/>
</svg>