<svg xmlns="http://www.w3.org/2000/svg" width="1280" height="760" viewBox="0 0 1280 760">
  <defs>
    <linearGradient id="top" x1="0" y1="0" x2="1" y2="1"><stop stop-color="#0891b2"/><stop offset="1" stop-color="#14b8a6"/></linearGradient>
    <filter id="shadow" x="-20%" y="-20%" width="140%" height="140%"><feDropShadow dx="0" dy="16" stdDeviation="18" flood-color="#0f172a" flood-opacity=".14"/></filter>
  </defs>
  <rect width="1280" height="760" fill="#f8fafc"/>
  <rect x="36" y="32" width="1208" height="696" rx="28" fill="#fff" filter="url(#shadow)"/>
  <rect x="36" y="32" width="1208" height="70" rx="28" fill="url(#top)"/>
  <circle cx="78" cy="67" r="9" fill="#fff" opacity=".85"/><circle cx="108" cy="67" r="9" fill="#fff" opacity=".55"/><circle cx="138" cy="67" r="9" fill="#fff" opacity=".32"/>
  <text x="178" y="77" font-family="Segoe UI, Arial, sans-serif" font-size="28" font-weight="800" fill="#fff">Assessment Records</text>
  <text x="78" y="150" font-family="Segoe UI, Arial" font-size="22" font-weight="850" fill="#0f766e">Student Records</text><rect x="70" y="185" width="1140" height="430" rx="18" fill="#fff" stroke="#e2e8f0"/><line x1="70" y1="185" x2="70" y2="615" stroke="#e2e8f0"/><line x1="180" y1="185" x2="180" y2="615" stroke="#e2e8f0"/><line x1="310" y1="185" x2="310" y2="615" stroke="#e2e8f0"/><line x1="505" y1="185" x2="505" y2="615" stroke="#e2e8f0"/><line x1="630" y1="185" x2="630" y2="615" stroke="#e2e8f0"/><line x1="760" y1="185" x2="760" y2="615" stroke="#e2e8f0"/><line x1="890" y1="185" x2="890" y2="615" stroke="#e2e8f0"/><line x1="1010" y1="185" x2="1010" y2="615" stroke="#e2e8f0"/><line x1="1130" y1="185" x2="1130" y2="615" stroke="#e2e8f0"/><line x1="70" y1="230" x2="1210" y2="230" stroke="#e2e8f0"/><rect x="94" y="242" width="42" height="34" rx="5" fill="#dbeafe"/><rect x="215" y="252" width="74" height="10" rx="5" fill="#334155"/><rect x="340" y="252" width="130" height="10" rx="5" fill="#64748b"/><rect x="1020" y="245" width="62" height="22" rx="7" fill="#ecfdf5"/><line x1="70" y1="285" x2="1210" y2="285" stroke="#e2e8f0"/><rect x="94" y="297" width="42" height="34" rx="5" fill="#dbeafe"/><rect x="215" y="307" width="74" height="10" rx="5" fill="#334155"/><rect x="340" y="307" width="130" height="10" rx="5" fill="#64748b"/><rect x="1020" y="300" width="62" height="22" rx="7" fill="#ecfdf5"/><line x1="70" y1="340" x2="1210" y2="340" stroke="#e2e8f0"/><rect x="94" y="352" width="42" height="34" rx="5" fill="#dbeafe"/><rect x="215" y="362" width="74" height="10" rx="5" fill="#334155"/><rect x="340" y="362" width="130" height="10" rx="5" fill="#64748b"/><rect x="1020" y="355" width="62" height="22" rx="7" fill="#ecfdf5"/><line x1="70" y1="395" x2="1210" y2="395" stroke="#e2e8f0"/><rect x="94" y="407" width="42" height="34" rx="5" fill="#dbeafe"/><rect x="215" y="417" width="74" height="10" rx="5" fill="#334155"/><rect x="340" y="417" width="130" height="10" rx="5" fill="#64748b"/><rect x="1020" y="410" width="62" height="22" rx="7" fill="#ecfdf5"/><line x1="70" y1="450" x2="1210" y2="450" stroke="#e2e8f0"/><rect x="94" y="462" width="42" height="34" rx="5" fill="#dbeafe"/><rect x="215" y="472" width="74" height="10" rx="5" fill="#334155"/><rect x="340" y="472" width="130" height="10" rx="5" fill="#64748b"/><rect x="1020" y="465" width="62" height="22" rx="7" fill="#ecfdf5"/><line x1="70" y1="505" x2="1210" y2="505" stroke="#e2e8f0"/><rect x="94" y="517" width="42" height="34" rx="5" fill="#dbeafe"/><rect x="215" y="527" width="74" height="10" rx="5" fill="#334155"/><rect x="340" y="527" width="130" height="10" rx="5" fill="#64748b"/><rect x="1020" y="520" width="62" height="22" rx="7" fill="#ecfdf5"/><line x1="70" y1="560" x2="1210" y2="560" stroke="#e2e8f0"/><rect x="94" y="572" width="42" height="34" rx="5" fill="#dbeafe"/><rect x="215" y="582" width="74" height="10" rx="5" fill="#334155"/><rect x="340" y="582" width="130" height="10" rx="5" fill="#64748b"/><rect x="1020" y="575" width="62" height="22" rx="7" fill="#ecfdf5"/><rect x="1020" y="650" width="115" height="38" rx="10" fill="#0ea5e9"/>
</svg>