<svg xmlns="http://www.w3.org/2000/svg" width="1280" height="760" viewBox="0 0 1280 760">
  <defs>
    <linearGradient id="top" x1="0" y1="0" x2="1" y2="1"><stop stop-color="#2563eb"/><stop offset="1" stop-color="#14b8a6"/></linearGradient>
    <filter id="shadow" x="-20%" y="-20%" width="140%" height="140%"><feDropShadow dx="0" dy="16" stdDeviation="18" flood-color="#0f172a" flood-opacity=".14"/></filter>
  </defs>
  <rect width="1280" height="760" fill="#f8fafc"/>
  <rect x="36" y="32" width="1208" height="696" rx="28" fill="#fff" filter="url(#shadow)"/>
  <rect x="36" y="32" width="1208" height="70" rx="28" fill="url(#top)"/>
  <circle cx="78" cy="67" r="9" fill="#fff" opacity=".85"/><circle cx="108" cy="67" r="9" fill="#fff" opacity=".55"/><circle cx="138" cy="67" r="9" fill="#fff" opacity=".32"/>
  <text x="178" y="77" font-family="Segoe UI, Arial, sans-serif" font-size="28" font-weight="800" fill="#fff">Capture Assessment</text>
  <rect x="70" y="130" width="1140" height="92" rx="18" fill="#f8fafc" stroke="#e2e8f0"/><rect x="95" y="165" width="170" height="32" rx="8" fill="#fff" stroke="#cbd5e1"/><text x="95" y="154" font-family="Segoe UI, Arial" font-size="12" font-weight="850" fill="#0f172a">Year</text><rect x="310" y="165" width="170" height="32" rx="8" fill="#fff" stroke="#cbd5e1"/><text x="310" y="154" font-family="Segoe UI, Arial" font-size="12" font-weight="850" fill="#0f172a">Semester</text><rect x="525" y="165" width="170" height="32" rx="8" fill="#fff" stroke="#cbd5e1"/><text x="525" y="154" font-family="Segoe UI, Arial" font-size="12" font-weight="850" fill="#0f172a">Mode</text><rect x="740" y="165" width="170" height="32" rx="8" fill="#fff" stroke="#cbd5e1"/><text x="740" y="154" font-family="Segoe UI, Arial" font-size="12" font-weight="850" fill="#0f172a">Class</text><rect x="955" y="165" width="170" height="32" rx="8" fill="#fff" stroke="#cbd5e1"/><text x="955" y="154" font-family="Segoe UI, Arial" font-size="12" font-weight="850" fill="#0f172a">Subject</text><rect x="70" y="255" width="1140" height="310" rx="18" fill="#fff" stroke="#e2e8f0"/><line x1="90" y1="328" x2="1180" y2="328" stroke="#e2e8f0"/><text x="105" y="318" font-family="Segoe UI, Arial" font-size="14" font-weight="800" fill="#334155">STD-101</text><rect x="310" y="296" width="310" height="26" rx="6" fill="#f8fafc"/><rect x="760" y="296" width="88" height="28" rx="7" fill="#fff" stroke="#94a3b8"/><rect x="980" y="296" width="92" height="28" rx="8" fill="#0ea5e9"/><line x1="90" y1="370" x2="1180" y2="370" stroke="#e2e8f0"/><text x="105" y="360" font-family="Segoe UI, Arial" font-size="14" font-weight="800" fill="#334155">STD-102</text><rect x="310" y="338" width="310" height="26" rx="6" fill="#f8fafc"/><rect x="760" y="338" width="88" height="28" rx="7" fill="#fff" stroke="#94a3b8"/><rect x="980" y="338" width="92" height="28" rx="8" fill="#0ea5e9"/><line x1="90" y1="412" x2="1180" y2="412" stroke="#e2e8f0"/><text x="105" y="402" font-family="Segoe UI, Arial" font-size="14" font-weight="800" fill="#334155">STD-103</text><rect x="310" y="380" width="310" height="26" rx="6" fill="#f8fafc"/><rect x="760" y="380" width="88" height="28" rx="7" fill="#fff" stroke="#94a3b8"/><rect x="980" y="380" width="92" height="28" rx="8" fill="#0ea5e9"/><line x1="90" y1="454" x2="1180" y2="454" stroke="#e2e8f0"/><text x="105" y="444" font-family="Segoe UI, Arial" font-size="14" font-weight="800" fill="#334155">STD-104</text><rect x="310" y="422" width="310" height="26" rx="6" fill="#f8fafc"/><rect x="760" y="422" width="88" height="28" rx="7" fill="#fff" stroke="#94a3b8"/><rect x="980" y="422" width="92" height="28" rx="8" fill="#0ea5e9"/><line x1="90" y1="496" x2="1180" y2="496" stroke="#e2e8f0"/><text x="105" y="486" font-family="Segoe UI, Arial" font-size="14" font-weight="800" fill="#334155">STD-105</text><rect x="310" y="464" width="310" height="26" rx="6" fill="#f8fafc"/><rect x="760" y="464" width="88" height="28" rx="7" fill="#fff" stroke="#94a3b8"/><rect x="980" y="464" width="92" height="28" rx="8" fill="#0ea5e9"/><line x1="90" y1="538" x2="1180" y2="538" stroke="#e2e8f0"/><text x="105" y="528" font-family="Segoe UI, Arial" font-size="14" font-weight="800" fill="#334155">STD-106</text><rect x="310" y="506" width="310" height="26" rx="6" fill="#f8fafc"/><rect x="760" y="506" width="88" height="28" rx="7" fill="#fff" stroke="#94a3b8"/><rect x="980" y="506" width="92" height="28" rx="8" fill="#0ea5e9"/><rect x="790" y="610" width="180" height="40" rx="10" fill="#0f766e"/><rect x="995" y="610" width="180" height="40" rx="10" fill="#d97706"/>
</svg>