<svg xmlns="http://www.w3.org/2000/svg" width="1280" height="760" viewBox="0 0 1280 760">
  <defs>
    <linearGradient id="top" x1="0" y1="0" x2="1" y2="1"><stop stop-color="#d97706"/><stop offset="1" stop-color="#14b8a6"/></linearGradient>
    <filter id="shadow" x="-20%" y="-20%" width="140%" height="140%"><feDropShadow dx="0" dy="16" stdDeviation="18" flood-color="#0f172a" flood-opacity=".14"/></filter>
  </defs>
  <rect width="1280" height="760" fill="#f8fafc"/>
  <rect x="36" y="32" width="1208" height="696" rx="28" fill="#fff" filter="url(#shadow)"/>
  <rect x="36" y="32" width="1208" height="70" rx="28" fill="url(#top)"/>
  <circle cx="78" cy="67" r="9" fill="#fff" opacity=".85"/><circle cx="108" cy="67" r="9" fill="#fff" opacity=".55"/><circle cx="138" cy="67" r="9" fill="#fff" opacity=".32"/>
  <text x="178" y="77" font-family="Segoe UI, Arial, sans-serif" font-size="28" font-weight="800" fill="#fff">Clearance</text>
  <rect x="80" y="135" width="1120" height="510" rx="22" fill="#fff" stroke="#e2e8f0"/><circle cx="130" cy="190" r="24" fill="#fff7ed" stroke="#f59e0b" stroke-width="3"/><path d="M119 190 l8 8 l17 -20" fill="none" stroke="#d97706" stroke-width="5" stroke-linecap="round" stroke-linejoin="round"/><text x="180" y="198" font-family="Segoe UI, Arial" font-size="21" font-weight="850" fill="#0f172a">Library Clearance</text><rect x="760" y="172" width="130" height="36" rx="10" fill="#0f766e"/><rect x="920" y="172" width="120" height="36" rx="10" fill="#dc2626"/><circle cx="130" cy="272" r="24" fill="#fff7ed" stroke="#f59e0b" stroke-width="3"/><path d="M119 272 l8 8 l17 -20" fill="none" stroke="#d97706" stroke-width="5" stroke-linecap="round" stroke-linejoin="round"/><text x="180" y="280" font-family="Segoe UI, Arial" font-size="21" font-weight="850" fill="#0f172a">House Clearance</text><rect x="760" y="254" width="130" height="36" rx="10" fill="#0f766e"/><rect x="920" y="254" width="120" height="36" rx="10" fill="#dc2626"/><circle cx="130" cy="354" r="24" fill="#fff7ed" stroke="#f59e0b" stroke-width="3"/><path d="M119 354 l8 8 l17 -20" fill="none" stroke="#d97706" stroke-width="5" stroke-linecap="round" stroke-linejoin="round"/><text x="180" y="362" font-family="Segoe UI, Arial" font-size="21" font-weight="850" fill="#0f172a">Accounts Clearance</text><rect x="760" y="336" width="130" height="36" rx="10" fill="#0f766e"/><rect x="920" y="336" width="120" height="36" rx="10" fill="#dc2626"/><circle cx="130" cy="436" r="24" fill="#fff7ed" stroke="#f59e0b" stroke-width="3"/><path d="M119 436 l8 8 l17 -20" fill="none" stroke="#d97706" stroke-width="5" stroke-linecap="round" stroke-linejoin="round"/><text x="180" y="444" font-family="Segoe UI, Arial" font-size="21" font-weight="850" fill="#0f172a">Laboratory Clearance</text><rect x="760" y="418" width="130" height="36" rx="10" fill="#0f766e"/><rect x="920" y="418" width="120" height="36" rx="10" fill="#dc2626"/><circle cx="130" cy="518" r="24" fill="#fff7ed" stroke="#f59e0b" stroke-width="3"/><path d="M119 518 l8 8 l17 -20" fill="none" stroke="#d97706" stroke-width="5" stroke-linecap="round" stroke-linejoin="round"/><text x="180" y="526" font-family="Segoe UI, Arial" font-size="21" font-weight="850" fill="#0f172a">Final Approval</text><rect x="760" y="500" width="130" height="36" rx="10" fill="#0f766e"/><rect x="920" y="500" width="120" height="36" rx="10" fill="#dc2626"/>
</svg>