<svg xmlns="http://www.w3.org/2000/svg" width="1280" height="760" viewBox="0 0 1280 760">
  <defs>
    <linearGradient id="top" x1="0" y1="0" x2="1" y2="1"><stop stop-color="#0f766e"/><stop offset="1" stop-color="#14b8a6"/></linearGradient>
    <filter id="shadow" x="-20%" y="-20%" width="140%" height="140%"><feDropShadow dx="0" dy="16" stdDeviation="18" flood-color="#0f172a" flood-opacity=".14"/></filter>
  </defs>
  <rect width="1280" height="760" fill="#f8fafc"/>
  <rect x="36" y="32" width="1208" height="696" rx="28" fill="#fff" filter="url(#shadow)"/>
  <rect x="36" y="32" width="1208" height="70" rx="28" fill="url(#top)"/>
  <circle cx="78" cy="67" r="9" fill="#fff" opacity=".85"/><circle cx="108" cy="67" r="9" fill="#fff" opacity=".55"/><circle cx="138" cy="67" r="9" fill="#fff" opacity=".32"/>
  <text x="178" y="77" font-family="Segoe UI, Arial, sans-serif" font-size="28" font-weight="800" fill="#fff">Dashboard</text>
  <rect x="54" y="126" width="250" height="560" rx="22" fill="#042f2e"/><text x="82" y="177" font-family="Segoe UI, Arial" font-size="19" font-weight="800" fill="#fff">AXIOMBYTE SMS</text><rect x="72" y="150" width="210" height="36" rx="11" fill="#14b8a6" opacity="1"/><rect x="72" y="205" width="210" height="36" rx="11" fill="#ffffff" opacity=".10"/><rect x="72" y="260" width="210" height="36" rx="11" fill="#ffffff" opacity=".10"/><rect x="72" y="315" width="210" height="36" rx="11" fill="#ffffff" opacity=".10"/><rect x="72" y="370" width="210" height="36" rx="11" fill="#ffffff" opacity=".10"/><rect x="72" y="425" width="210" height="36" rx="11" fill="#ffffff" opacity=".10"/><rect x="340" y="138" width="185" height="110" rx="20" fill="#f8fafc" stroke="#e2e8f0"/><text x="362" y="180" font-family="Segoe UI, Arial" font-size="16" font-weight="700" fill="#64748b">Students</text><text x="362" y="220" font-family="Segoe UI, Arial" font-size="30" font-weight="850" fill="#0f766e">1,284</text><rect x="565" y="138" width="185" height="110" rx="20" fill="#f8fafc" stroke="#e2e8f0"/><text x="587" y="180" font-family="Segoe UI, Arial" font-size="16" font-weight="700" fill="#64748b">Staff</text><text x="587" y="220" font-family="Segoe UI, Arial" font-size="30" font-weight="850" fill="#2563eb">86</text><rect x="790" y="138" width="185" height="110" rx="20" fill="#f8fafc" stroke="#e2e8f0"/><text x="812" y="180" font-family="Segoe UI, Arial" font-size="16" font-weight="700" fill="#64748b">Classes</text><text x="812" y="220" font-family="Segoe UI, Arial" font-size="30" font-weight="850" fill="#d97706">24</text><rect x="1015" y="138" width="185" height="110" rx="20" fill="#f8fafc" stroke="#e2e8f0"/><text x="1037" y="180" font-family="Segoe UI, Arial" font-size="16" font-weight="700" fill="#64748b">Scores</text><text x="1037" y="220" font-family="Segoe UI, Arial" font-size="30" font-weight="850" fill="#7c3aed">5 Modes</text><rect x="340" y="285" width="510" height="345" rx="22" fill="#fff" stroke="#e2e8f0"/><polyline points="380,570 455,520 535,545 620,450 720,480 815,385" fill="none" stroke="#0f766e" stroke-width="10" stroke-linecap="round" stroke-linejoin="round"/><rect x="885" y="285" width="315" height="345" rx="22" fill="#f8fafc" stroke="#e2e8f0"/><rect x="925" y="340" width="240" height="16" rx="8" fill="#cbd5e1"/><rect x="925" y="395" width="190" height="16" rx="8" fill="#cbd5e1"/><rect x="925" y="450" width="260" height="16" rx="8" fill="#cbd5e1"/><rect x="925" y="505" width="160" height="16" rx="8" fill="#cbd5e1"/><rect x="925" y="560" width="220" height="16" rx="8" fill="#cbd5e1"/>
</svg>