<svg xmlns="http://www.w3.org/2000/svg" width="1280" height="760" viewBox="0 0 1280 760">
  <defs>
    <linearGradient id="top" x1="0" y1="0" x2="1" y2="1"><stop stop-color="#047857"/><stop offset="1" stop-color="#14b8a6"/></linearGradient>
    <filter id="shadow" x="-20%" y="-20%" width="140%" height="140%"><feDropShadow dx="0" dy="16" stdDeviation="18" flood-color="#0f172a" flood-opacity=".14"/></filter>
  </defs>
  <rect width="1280" height="760" fill="#f8fafc"/>
  <rect x="36" y="32" width="1208" height="696" rx="28" fill="#fff" filter="url(#shadow)"/>
  <rect x="36" y="32" width="1208" height="70" rx="28" fill="url(#top)"/>
  <circle cx="78" cy="67" r="9" fill="#fff" opacity=".85"/><circle cx="108" cy="67" r="9" fill="#fff" opacity=".55"/><circle cx="138" cy="67" r="9" fill="#fff" opacity=".32"/>
  <text x="178" y="77" font-family="Segoe UI, Arial, sans-serif" font-size="28" font-weight="800" fill="#fff">Manage Students</text>
  <rect x="70" y="130" width="1140" height="76" rx="18" fill="#f8fafc" stroke="#e2e8f0"/><text x="95" y="163" font-family="Segoe UI, Arial" font-size="15" font-weight="800" fill="#0f172a">Learning Area</text><rect x="95" y="174" width="190" height="20" rx="6" fill="#fff" stroke="#cbd5e1"/><text x="345" y="163" font-family="Segoe UI, Arial" font-size="15" font-weight="800" fill="#0f172a">Class</text><rect x="345" y="174" width="190" height="20" rx="6" fill="#fff" stroke="#cbd5e1"/><text x="590" y="163" font-family="Segoe UI, Arial" font-size="15" font-weight="800" fill="#0f172a">Year</text><rect x="590" y="174" width="190" height="20" rx="6" fill="#fff" stroke="#cbd5e1"/><text x="835" y="163" font-family="Segoe UI, Arial" font-size="15" font-weight="800" fill="#0f172a">Search ASS ID</text><rect x="835" y="174" width="190" height="20" rx="6" fill="#fff" stroke="#cbd5e1"/><rect x="70" y="235" width="1140" height="420" rx="18" fill="#fff" stroke="#e2e8f0"/><text x="92" y="275" font-family="Segoe UI, Arial" font-size="13" font-weight="850" fill="#0f172a">PPT_PIC</text><text x="247" y="275" font-family="Segoe UI, Arial" font-size="13" font-weight="850" fill="#0f172a">ASS_REF.ID</text><text x="402" y="275" font-family="Segoe UI, Arial" font-size="13" font-weight="850" fill="#0f172a">CANDIDATE_NAME</text><text x="557" y="275" font-family="Segoe UI, Arial" font-size="13" font-weight="850" fill="#0f172a">GENDER</text><text x="712" y="275" font-family="Segoe UI, Arial" font-size="13" font-weight="850" fill="#0f172a">DOB</text><text x="867" y="275" font-family="Segoe UI, Arial" font-size="13" font-weight="850" fill="#0f172a">CLASS</text><text x="1022" y="275" font-family="Segoe UI, Arial" font-size="13" font-weight="850" fill="#0f172a">ACTION</text><line x1="70" y1="292" x2="1210" y2="292" stroke="#e2e8f0"/><rect x="95" y="302" width="44" height="50" rx="6" fill="#dbeafe"/><circle cx="117" cy="322" r="13" fill="#94a3b8"/><rect x="250" y="318" width="95" height="12" rx="6" fill="#64748b"/><rect x="405" y="318" width="170" height="12" rx="6" fill="#334155"/><rect x="1032" y="311" width="70" height="28" rx="8" fill="#0ea5e9"/><rect x="1118" y="311" width="70" height="28" rx="8" fill="#dc2626"/><line x1="70" y1="360" x2="1210" y2="360" stroke="#e2e8f0"/><rect x="95" y="370" width="44" height="50" rx="6" fill="#dbeafe"/><circle cx="117" cy="390" r="13" fill="#94a3b8"/><rect x="250" y="386" width="95" height="12" rx="6" fill="#64748b"/><rect x="405" y="386" width="170" height="12" rx="6" fill="#334155"/><rect x="1032" y="379" width="70" height="28" rx="8" fill="#0ea5e9"/><rect x="1118" y="379" width="70" height="28" rx="8" fill="#dc2626"/><line x1="70" y1="428" x2="1210" y2="428" stroke="#e2e8f0"/><rect x="95" y="438" width="44" height="50" rx="6" fill="#dbeafe"/><circle cx="117" cy="458" r="13" fill="#94a3b8"/><rect x="250" y="454" width="95" height="12" rx="6" fill="#64748b"/><rect x="405" y="454" width="170" height="12" rx="6" fill="#334155"/><rect x="1032" y="447" width="70" height="28" rx="8" fill="#0ea5e9"/><rect x="1118" y="447" width="70" height="28" rx="8" fill="#dc2626"/><line x1="70" y1="496" x2="1210" y2="496" stroke="#e2e8f0"/><rect x="95" y="506" width="44" height="50" rx="6" fill="#dbeafe"/><circle cx="117" cy="526" r="13" fill="#94a3b8"/><rect x="250" y="522" width="95" height="12" rx="6" fill="#64748b"/><rect x="405" y="522" width="170" height="12" rx="6" fill="#334155"/><rect x="1032" y="515" width="70" height="28" rx="8" fill="#0ea5e9"/><rect x="1118" y="515" width="70" height="28" rx="8" fill="#dc2626"/><line x1="70" y1="564" x2="1210" y2="564" stroke="#e2e8f0"/><rect x="95" y="574" width="44" height="50" rx="6" fill="#dbeafe"/><circle cx="117" cy="594" r="13" fill="#94a3b8"/><rect x="250" y="590" width="95" height="12" rx="6" fill="#64748b"/><rect x="405" y="590" width="170" height="12" rx="6" fill="#334155"/><rect x="1032" y="583" width="70" height="28" rx="8" fill="#0ea5e9"/><rect x="1118" y="583" width="70" height="28" rx="8" fill="#dc2626"/>
</svg>