<svg xmlns="http://www.w3.org/2000/svg" width="1280" height="760" viewBox="0 0 1280 760">
  <defs>
    <linearGradient id="top" x1="0" y1="0" x2="1" y2="1"><stop stop-color="#0f766e"/><stop offset="1" stop-color="#14b8a6"/></linearGradient>
    <filter id="shadow" x="-20%" y="-20%" width="140%" height="140%"><feDropShadow dx="0" dy="16" stdDeviation="18" flood-color="#0f172a" flood-opacity=".14"/></filter>
  </defs>
  <rect width="1280" height="760" fill="#f8fafc"/>
  <rect x="36" y="32" width="1208" height="696" rx="28" fill="#fff" filter="url(#shadow)"/>
  <rect x="36" y="32" width="1208" height="70" rx="28" fill="url(#top)"/>
  <circle cx="78" cy="67" r="9" fill="#fff" opacity=".85"/><circle cx="108" cy="67" r="9" fill="#fff" opacity=".55"/><circle cx="138" cy="67" r="9" fill="#fff" opacity=".32"/>
  <text x="178" y="77" font-family="Segoe UI, Arial, sans-serif" font-size="28" font-weight="800" fill="#fff">Manage Users</text>
  <rect x="70" y="130" width="1140" height="505" rx="18" fill="#fff" stroke="#e2e8f0"/><text x="92" y="174" font-family="Segoe UI, Arial" font-size="13" font-weight="850" fill="#0f172a">Action</text><text x="232" y="174" font-family="Segoe UI, Arial" font-size="13" font-weight="850" fill="#0f172a">Staff Name</text><text x="372" y="174" font-family="Segoe UI, Arial" font-size="13" font-weight="850" fill="#0f172a">Email ID</text><text x="512" y="174" font-family="Segoe UI, Arial" font-size="13" font-weight="850" fill="#0f172a">Phone No.</text><text x="652" y="174" font-family="Segoe UI, Arial" font-size="13" font-weight="850" fill="#0f172a">Designation</text><text x="792" y="174" font-family="Segoe UI, Arial" font-size="13" font-weight="850" fill="#0f172a">Privilege</text><text x="932" y="174" font-family="Segoe UI, Arial" font-size="13" font-weight="850" fill="#0f172a">Status</text><text x="1072" y="174" font-family="Segoe UI, Arial" font-size="13" font-weight="850" fill="#0f172a">Password</text><line x1="70" y1="205" x2="1210" y2="205" stroke="#e2e8f0"/><rect x="92" y="223" width="60" height="28" rx="8" fill="#0ea5e9"/><rect x="225" y="230" width="120" height="11" rx="6" fill="#334155"/><rect x="365" y="230" width="180" height="11" rx="6" fill="#64748b"/><rect x="790" y="223" width="104" height="28" rx="8" fill="#0f766e"/><rect x="1070" y="223" width="82" height="28" rx="8" fill="#dc2626"/><line x1="70" y1="270" x2="1210" y2="270" stroke="#e2e8f0"/><rect x="92" y="288" width="60" height="28" rx="8" fill="#0ea5e9"/><rect x="225" y="295" width="120" height="11" rx="6" fill="#334155"/><rect x="365" y="295" width="180" height="11" rx="6" fill="#64748b"/><rect x="790" y="288" width="104" height="28" rx="8" fill="#0f766e"/><rect x="1070" y="288" width="82" height="28" rx="8" fill="#dc2626"/><line x1="70" y1="335" x2="1210" y2="335" stroke="#e2e8f0"/><rect x="92" y="353" width="60" height="28" rx="8" fill="#0ea5e9"/><rect x="225" y="360" width="120" height="11" rx="6" fill="#334155"/><rect x="365" y="360" width="180" height="11" rx="6" fill="#64748b"/><rect x="790" y="353" width="104" height="28" rx="8" fill="#0f766e"/><rect x="1070" y="353" width="82" height="28" rx="8" fill="#dc2626"/><line x1="70" y1="400" x2="1210" y2="400" stroke="#e2e8f0"/><rect x="92" y="418" width="60" height="28" rx="8" fill="#0ea5e9"/><rect x="225" y="425" width="120" height="11" rx="6" fill="#334155"/><rect x="365" y="425" width="180" height="11" rx="6" fill="#64748b"/><rect x="790" y="418" width="104" height="28" rx="8" fill="#0f766e"/><rect x="1070" y="418" width="82" height="28" rx="8" fill="#dc2626"/><line x1="70" y1="465" x2="1210" y2="465" stroke="#e2e8f0"/><rect x="92" y="483" width="60" height="28" rx="8" fill="#0ea5e9"/><rect x="225" y="490" width="120" height="11" rx="6" fill="#334155"/><rect x="365" y="490" width="180" height="11" rx="6" fill="#64748b"/><rect x="790" y="483" width="104" height="28" rx="8" fill="#0f766e"/><rect x="1070" y="483" width="82" height="28" rx="8" fill="#dc2626"/><line x1="70" y1="530" x2="1210" y2="530" stroke="#e2e8f0"/><rect x="92" y="548" width="60" height="28" rx="8" fill="#0ea5e9"/><rect x="225" y="555" width="120" height="11" rx="6" fill="#334155"/><rect x="365" y="555" width="180" height="11" rx="6" fill="#64748b"/><rect x="790" y="548" width="104" height="28" rx="8" fill="#0f766e"/><rect x="1070" y="548" width="82" height="28" rx="8" fill="#dc2626"/>
</svg>