<svg xmlns="http://www.w3.org/2000/svg" width="1280" height="760" viewBox="0 0 1280 760">
  <defs>
    <linearGradient id="top" x1="0" y1="0" x2="1" y2="1"><stop stop-color="#14b8a6"/><stop offset="1" stop-color="#14b8a6"/></linearGradient>
    <filter id="shadow" x="-20%" y="-20%" width="140%" height="140%"><feDropShadow dx="0" dy="16" stdDeviation="18" flood-color="#0f172a" flood-opacity=".14"/></filter>
  </defs>
  <rect width="1280" height="760" fill="#f8fafc"/>
  <rect x="36" y="32" width="1208" height="696" rx="28" fill="#fff" filter="url(#shadow)"/>
  <rect x="36" y="32" width="1208" height="70" rx="28" fill="url(#top)"/>
  <circle cx="78" cy="67" r="9" fill="#fff" opacity=".85"/><circle cx="108" cy="67" r="9" fill="#fff" opacity=".55"/><circle cx="138" cy="67" r="9" fill="#fff" opacity=".32"/>
  <text x="178" y="77" font-family="Segoe UI, Arial, sans-serif" font-size="28" font-weight="800" fill="#fff">Register Student</text>
  <text x="90" y="155" font-family="Segoe UI, Arial" font-size="20" font-weight="850" fill="#0f766e">Student Profile (Bio Data)</text><text x="90" y="200" font-family="Segoe UI, Arial" font-size="14" font-weight="800" fill="#334155">Field 1</text><rect x="90" y="212" width="320" height="38" rx="8" fill="#fff" stroke="#cbd5e1"/><text x="470" y="200" font-family="Segoe UI, Arial" font-size="14" font-weight="800" fill="#334155">Field 2</text><rect x="470" y="212" width="320" height="38" rx="8" fill="#fff" stroke="#cbd5e1"/><text x="90" y="278" font-family="Segoe UI, Arial" font-size="14" font-weight="800" fill="#334155">Field 3</text><rect x="90" y="290" width="320" height="38" rx="8" fill="#fff" stroke="#cbd5e1"/><text x="470" y="278" font-family="Segoe UI, Arial" font-size="14" font-weight="800" fill="#334155">Field 4</text><rect x="470" y="290" width="320" height="38" rx="8" fill="#fff" stroke="#cbd5e1"/><text x="90" y="356" font-family="Segoe UI, Arial" font-size="14" font-weight="800" fill="#334155">Field 5</text><rect x="90" y="368" width="320" height="38" rx="8" fill="#fff" stroke="#cbd5e1"/><text x="470" y="356" font-family="Segoe UI, Arial" font-size="14" font-weight="800" fill="#334155">Field 6</text><rect x="470" y="368" width="320" height="38" rx="8" fill="#fff" stroke="#cbd5e1"/><text x="90" y="434" font-family="Segoe UI, Arial" font-size="14" font-weight="800" fill="#334155">Field 7</text><rect x="90" y="446" width="320" height="38" rx="8" fill="#fff" stroke="#cbd5e1"/><text x="470" y="434" font-family="Segoe UI, Arial" font-size="14" font-weight="800" fill="#334155">Field 8</text><rect x="470" y="446" width="320" height="38" rx="8" fill="#fff" stroke="#cbd5e1"/><rect x="900" y="195" width="180" height="220" rx="12" fill="#f1f5f9" stroke="#cbd5e1"/><circle cx="990" cy="270" r="42" fill="#94a3b8"/><path d="M925 395c20-52 110-52 130 0" fill="#cbd5e1"/><rect x="900" y="450" width="210" height="36" rx="8" fill="#fff" stroke="#cbd5e1"/><rect x="520" y="635" width="110" height="38" rx="10" fill="#0f766e"/><text x="548" y="660" font-family="Segoe UI, Arial" font-size="15" font-weight="800" fill="#fff">Next</text>
</svg>