<svg xmlns="http://www.w3.org/2000/svg" width="1280" height="760" viewBox="0 0 1280 760">
  <defs>
    <linearGradient id="top" x1="0" y1="0" x2="1" y2="1"><stop stop-color="#047857"/><stop offset="1" stop-color="#14b8a6"/></linearGradient>
    <filter id="shadow" x="-20%" y="-20%" width="140%" height="140%"><feDropShadow dx="0" dy="16" stdDeviation="18" flood-color="#0f172a" flood-opacity=".14"/></filter>
  </defs>
  <rect width="1280" height="760" fill="#f8fafc"/>
  <rect x="36" y="32" width="1208" height="696" rx="28" fill="#fff" filter="url(#shadow)"/>
  <rect x="36" y="32" width="1208" height="70" rx="28" fill="url(#top)"/>
  <circle cx="78" cy="67" r="9" fill="#fff" opacity=".85"/><circle cx="108" cy="67" r="9" fill="#fff" opacity=".55"/><circle cx="138" cy="67" r="9" fill="#fff" opacity=".32"/>
  <text x="178" y="77" font-family="Segoe UI, Arial, sans-serif" font-size="28" font-weight="800" fill="#fff">Add User</text>
  <rect x="70" y="130" width="170" height="56" rx="18" fill="#0f766e" stroke="#dbe7e5"/><text x="92" y="166" font-family="Segoe UI, Arial" font-size="16" font-weight="850" fill="#fff">1 Personal</text><rect x="260" y="130" width="170" height="56" rx="18" fill="#fff" stroke="#dbe7e5"/><text x="282" y="166" font-family="Segoe UI, Arial" font-size="16" font-weight="850" fill="#334155">2 Employment</text><rect x="450" y="130" width="170" height="56" rx="18" fill="#fff" stroke="#dbe7e5"/><text x="472" y="166" font-family="Segoe UI, Arial" font-size="16" font-weight="850" fill="#334155">3 Qualifications</text><rect x="640" y="130" width="170" height="56" rx="18" fill="#fff" stroke="#dbe7e5"/><text x="662" y="166" font-family="Segoe UI, Arial" font-size="16" font-weight="850" fill="#334155">4 Contact</text><rect x="830" y="130" width="170" height="56" rx="18" fill="#fff" stroke="#dbe7e5"/><text x="852" y="166" font-family="Segoe UI, Arial" font-size="16" font-weight="850" fill="#334155">5 Bank</text><rect x="1020" y="130" width="170" height="56" rx="18" fill="#fff" stroke="#dbe7e5"/><text x="1042" y="166" font-family="Segoe UI, Arial" font-size="16" font-weight="850" fill="#334155">6 Account</text><rect x="70" y="220" width="1140" height="390" rx="22" fill="#fff" stroke="#e2e8f0"/><text x="110" y="275" font-family="Segoe UI, Arial" font-size="25" font-weight="850" fill="#0f766e">Personal Information</text><rect x="110" y="315" width="295" height="40" rx="10" fill="#fff" stroke="#cbd5e1"/><rect x="110" y="293" width="110" height="12" rx="6" fill="#64748b" opacity=".7"/><rect x="460" y="315" width="295" height="40" rx="10" fill="#fff" stroke="#cbd5e1"/><rect x="460" y="293" width="110" height="12" rx="6" fill="#64748b" opacity=".7"/><rect x="810" y="315" width="295" height="40" rx="10" fill="#fff" stroke="#cbd5e1"/><rect x="810" y="293" width="110" height="12" rx="6" fill="#64748b" opacity=".7"/><rect x="110" y="397" width="295" height="40" rx="10" fill="#fff" stroke="#cbd5e1"/><rect x="110" y="375" width="110" height="12" rx="6" fill="#64748b" opacity=".7"/><rect x="460" y="397" width="295" height="40" rx="10" fill="#fff" stroke="#cbd5e1"/><rect x="460" y="375" width="110" height="12" rx="6" fill="#64748b" opacity=".7"/><rect x="810" y="397" width="295" height="40" rx="10" fill="#fff" stroke="#cbd5e1"/><rect x="810" y="375" width="110" height="12" rx="6" fill="#64748b" opacity=".7"/><rect x="110" y="479" width="295" height="40" rx="10" fill="#fff" stroke="#cbd5e1"/><rect x="110" y="457" width="110" height="12" rx="6" fill="#64748b" opacity=".7"/><rect x="460" y="479" width="295" height="40" rx="10" fill="#fff" stroke="#cbd5e1"/><rect x="460" y="457" width="110" height="12" rx="6" fill="#64748b" opacity=".7"/><rect x="810" y="479" width="295" height="40" rx="10" fill="#fff" stroke="#cbd5e1"/><rect x="810" y="457" width="110" height="12" rx="6" fill="#64748b" opacity=".7"/><rect x="1035" y="650" width="120" height="42" rx="12" fill="#0f766e"/>
</svg>