<svg xmlns="http://www.w3.org/2000/svg" width="1280" height="760" viewBox="0 0 1280 760">
  <defs>
    <linearGradient id="top" x1="0" y1="0" x2="1" y2="1"><stop stop-color="#7c3aed"/><stop offset="1" stop-color="#14b8a6"/></linearGradient>
    <filter id="shadow" x="-20%" y="-20%" width="140%" height="140%"><feDropShadow dx="0" dy="16" stdDeviation="18" flood-color="#0f172a" flood-opacity=".14"/></filter>
  </defs>
  <rect width="1280" height="760" fill="#f8fafc"/>
  <rect x="36" y="32" width="1208" height="696" rx="28" fill="#fff" filter="url(#shadow)"/>
  <rect x="36" y="32" width="1208" height="70" rx="28" fill="url(#top)"/>
  <circle cx="78" cy="67" r="9" fill="#fff" opacity=".85"/><circle cx="108" cy="67" r="9" fill="#fff" opacity=".55"/><circle cx="138" cy="67" r="9" fill="#fff" opacity=".32"/>
  <text x="178" y="77" font-family="Segoe UI, Arial, sans-serif" font-size="28" font-weight="800" fill="#fff">Scheme of Work</text>
  <rect x="90" y="145" width="330" height="450" rx="22" fill="#fff" stroke="#e2e8f0"/><text x="120" y="195" font-family="Segoe UI, Arial" font-size="22" font-weight="850" fill="#7c3aed">Submit Scheme</text><rect x="485" y="145" width="310" height="450" rx="22" fill="#fff" stroke="#e2e8f0"/><text x="530" y="195" font-family="Segoe UI, Arial" font-size="22" font-weight="850" fill="#7c3aed">HOD Review</text><rect x="860" y="145" width="310" height="450" rx="22" fill="#fff" stroke="#e2e8f0"/><text x="900" y="195" font-family="Segoe UI, Arial" font-size="22" font-weight="850" fill="#7c3aed">Head Academic</text><rect x="180" y="245" width="160" height="16" rx="8" fill="#c4b5fd" opacity=".8"/><rect x="180" y="315" width="160" height="16" rx="8" fill="#c4b5fd" opacity=".8"/><rect x="180" y="385" width="160" height="16" rx="8" fill="#c4b5fd" opacity=".8"/><rect x="180" y="455" width="160" height="16" rx="8" fill="#c4b5fd" opacity=".8"/><rect x="575" y="245" width="160" height="16" rx="8" fill="#c4b5fd" opacity=".8"/><rect x="575" y="315" width="160" height="16" rx="8" fill="#c4b5fd" opacity=".8"/><rect x="575" y="385" width="160" height="16" rx="8" fill="#c4b5fd" opacity=".8"/><rect x="575" y="455" width="160" height="16" rx="8" fill="#c4b5fd" opacity=".8"/><rect x="950" y="245" width="160" height="16" rx="8" fill="#c4b5fd" opacity=".8"/><rect x="950" y="315" width="160" height="16" rx="8" fill="#c4b5fd" opacity=".8"/><rect x="950" y="385" width="160" height="16" rx="8" fill="#c4b5fd" opacity=".8"/><rect x="950" y="455" width="160" height="16" rx="8" fill="#c4b5fd" opacity=".8"/><path d="M430 360 H475" stroke="#7c3aed" stroke-width="8" stroke-linecap="round"/><path d="M805 360 H850" stroke="#7c3aed" stroke-width="8" stroke-linecap="round"/>
</svg>