<svg xmlns="http://www.w3.org/2000/svg" width="1280" height="760" viewBox="0 0 1280 760">
  <defs>
    <linearGradient id="top" x1="0" y1="0" x2="1" y2="1"><stop stop-color="#dc2626"/><stop offset="1" stop-color="#14b8a6"/></linearGradient>
    <filter id="shadow" x="-20%" y="-20%" width="140%" height="140%"><feDropShadow dx="0" dy="16" stdDeviation="18" flood-color="#0f172a" flood-opacity=".14"/></filter>
  </defs>
  <rect width="1280" height="760" fill="#f8fafc"/>
  <rect x="36" y="32" width="1208" height="696" rx="28" fill="#fff" filter="url(#shadow)"/>
  <rect x="36" y="32" width="1208" height="70" rx="28" fill="url(#top)"/>
  <circle cx="78" cy="67" r="9" fill="#fff" opacity=".85"/><circle cx="108" cy="67" r="9" fill="#fff" opacity=".55"/><circle cx="138" cy="67" r="9" fill="#fff" opacity=".32"/>
  <text x="178" y="77" font-family="Segoe UI, Arial, sans-serif" font-size="28" font-weight="800" fill="#fff">Transcript</text>
  <rect x="100" y="130" width="1080" height="560" rx="18" fill="#fff" stroke="#e2e8f0"/><text x="150" y="185" font-family="Georgia, serif" font-size="29" font-weight="800" fill="#0f172a">AXIOMBYTE SMS TRANSCRIPT</text><rect x="970" y="150" width="120" height="140" rx="8" fill="#f1f5f9" stroke="#cbd5e1"/><text x="150" y="245" font-family="Segoe UI, Arial" font-size="18" font-weight="800" fill="#334155">YEAR 2 ACADEMIC RECORD</text><line x1="145" y1="285" x2="1135" y2="285" stroke="#cbd5e1"/><line x1="145" y1="330" x2="1135" y2="330" stroke="#cbd5e1"/><line x1="145" y1="375" x2="1135" y2="375" stroke="#cbd5e1"/><line x1="145" y1="420" x2="1135" y2="420" stroke="#cbd5e1"/><line x1="145" y1="465" x2="1135" y2="465" stroke="#cbd5e1"/><line x1="145" y1="510" x2="1135" y2="510" stroke="#cbd5e1"/><line x1="145" y1="285" x2="145" y2="510" stroke="#cbd5e1"/><line x1="360" y1="285" x2="360" y2="510" stroke="#cbd5e1"/><line x1="620" y1="285" x2="620" y2="510" stroke="#cbd5e1"/><line x1="810" y1="285" x2="810" y2="510" stroke="#cbd5e1"/><line x1="980" y1="285" x2="980" y2="510" stroke="#cbd5e1"/><line x1="1135" y1="285" x2="1135" y2="510" stroke="#cbd5e1"/><text x="165" y="315" font-family="Segoe UI, Arial" font-size="15" font-weight="850" fill="#0f172a">Subject</text><text x="370" y="315" font-family="Segoe UI, Arial" font-size="15" font-weight="850" fill="#0f172a">Score</text><text x="575" y="315" font-family="Segoe UI, Arial" font-size="15" font-weight="850" fill="#0f172a">Grade</text><text x="780" y="315" font-family="Segoe UI, Arial" font-size="15" font-weight="850" fill="#0f172a">GPA</text><text x="985" y="315" font-family="Segoe UI, Arial" font-size="15" font-weight="850" fill="#0f172a">Remark</text><text x="150" y="575" font-family="Segoe UI, Arial" font-size="17" font-weight="850" fill="#0f172a">Academic Summary</text><text x="150" y="610" font-family="Segoe UI, Arial" font-size="16" font-weight="700" fill="#334155">Cumulative GPA: 3.2  |  Credits Earned: 84.0</text>
</svg>